<svg xmlns="http://www.w3.org/2000/svg"  viewBox="0 0 64 64" width="64px" height="64px"><linearGradient id="T_4s3Pbg25peZuVf5giLLa" x1="38.198" x2="38.198" y1="41.835" y2="47.628" gradientUnits="userSpaceOnUse"><stop offset="0" stop-color="#6dc7ff"/><stop offset="1" stop-color="#e6abff"/></linearGradient><path fill="url(#T_4s3Pbg25peZuVf5giLLa)" d="M41.711,41.785c0.542,0.725,0.856,1.626,0.856,2.596c0,2.412-1.958,4.37-4.37,4.37	c-2.412,0-4.37-1.958-4.37-4.37c0-0.017,0-0.035,0-0.052l3.826,0.052L41.711,41.785z"/><linearGradient id="T_4s3Pbg25peZuVf5giLLb" x1="30.807" x2="30.807" y1="22.792" y2="27.568" gradientUnits="userSpaceOnUse"><stop offset="0" stop-color="#6dc7ff"/><stop offset="1" stop-color="#e6abff"/></linearGradient><path fill="url(#T_4s3Pbg25peZuVf5giLLb)" d="M32.588,25.77c0-0.984-0.798-1.781-1.781-1.781c-0.984,0-1.781,0.798-1.781,1.781 s0.798,1.781,1.781,1.781C31.791,27.552,32.588,26.754,32.588,25.77z"/><linearGradient id="T_4s3Pbg25peZuVf5giLLc" x1="40.786" x2="40.786" y1="22.792" y2="27.568" gradientUnits="userSpaceOnUse"><stop offset="0" stop-color="#6dc7ff"/><stop offset="1" stop-color="#e6abff"/></linearGradient><circle cx="40.786" cy="25.77" r="1.781" fill="url(#T_4s3Pbg25peZuVf5giLLc)"/><linearGradient id="T_4s3Pbg25peZuVf5giLLd" x1="35.92" x2="35.92" y1="30.319" y2="37.3" gradientUnits="userSpaceOnUse"><stop offset="0" stop-color="#6dc7ff"/><stop offset="1" stop-color="#e6abff"/></linearGradient><path fill="url(#T_4s3Pbg25peZuVf5giLLd)" d="M41.671,32.156c-0.503-0.225-1.096,0.003-1.32,0.507c-0.012,0.026-1.199,2.613-4.432,2.613 c-3.185,0-4.38-2.503-4.434-2.619c-0.226-0.5-0.815-0.728-1.317-0.502c-0.505,0.224-0.732,0.815-0.507,1.32 c0.069,0.155,1.742,3.801,6.259,3.801c4.518,0,6.19-3.646,6.259-3.801C42.403,32.971,42.176,32.38,41.671,32.156z"/><g><linearGradient id="T_4s3Pbg25peZuVf5giLLe" x1="32" x2="32" y1="3.851" y2="58.682" gradientUnits="userSpaceOnUse"><stop offset="0" stop-color="#1a6dff"/><stop offset="1" stop-color="#c822ff"/></linearGradient><path fill="url(#T_4s3Pbg25peZuVf5giLLe)" d="M50,7H14c-3.859,0-7,3.141-7,7v36c0,3.859,3.141,7,7,7h36c3.859,0,7-3.141,7-7V14 C57,10.141,53.859,7,50,7z M55,50c0,2.757-2.243,5-5,5H14c-2.757,0-5-2.243-5-5V14c0-2.757,2.243-5,5-5h36c2.757,0,5,2.243,5,5V50z"/><linearGradient id="T_4s3Pbg25peZuVf5giLLf" x1="32" x2="32" y1="3.851" y2="58.682" gradientUnits="userSpaceOnUse"><stop offset="0" stop-color="#1a6dff"/><stop offset="1" stop-color="#c822ff"/></linearGradient><path fill="url(#T_4s3Pbg25peZuVf5giLLf)" d="M33.781,14.25c-4.174,0-8.097,1.664-11.047,4.685c-2.943,3.016-4.564,7.023-4.563,11.284 c0,3.25-0.436,5.415-2.564,5.415c-0.335,0-0.648,0.168-0.833,0.447c-0.186,0.279-0.219,0.632-0.089,0.941 c1.636,3.884,4.176,6.334,7.996,7.708c0.523,0.186,1.092-0.083,1.28-0.602c0.187-0.52-0.083-1.093-0.602-1.28 c-2.859-1.029-4.881-2.772-6.282-5.438c3.095-1.037,3.095-5.41,3.095-7.191c0-3.736,1.418-7.248,3.995-9.887 c2.57-2.633,5.985-4.083,9.616-4.083c7.506,0,13.612,6.267,13.612,13.969c0,4.963-2.481,9.448-6.637,11.999 c-1.804,1.108-3.872,1.775-5.988,1.93c-0.323,0.026-0.651,0.039-0.987,0.039c-1.462,0-2.723-0.039-3.857-0.118 c-0.554-0.039-1.029,0.377-1.067,0.928s0.376,1.029,0.928,1.067c1.18,0.083,2.488,0.123,3.997,0.123 c0.392,0,0.775-0.014,1.142-0.044c2.425-0.177,4.804-0.944,6.879-2.219c4.753-2.917,7.591-8.04,7.591-13.704 C49.394,21.413,42.39,14.25,33.781,14.25z"/></g><linearGradient id="T_4s3Pbg25peZuVf5giLLg" x1="25.817" x2="25.817" y1="39.202" y2="47.028" gradientUnits="userSpaceOnUse"><stop offset="0" stop-color="#6dc7ff"/><stop offset="1" stop-color="#e6abff"/></linearGradient><circle cx="25.817" cy="44.381" r="4.37" fill="url(#T_4s3Pbg25peZuVf5giLLg)"/></svg>